<svg xmlns="http://www.w3.org/2000/svg" id="Layer_1" data-name="Layer 1" viewBox="0 0 180 36"><defs><clipPath id="clippath"><path d="M0 0h180v36H0z" style="fill:none"/></clipPath><style>.cls-2{fill:#5aa3d2}</style></defs><path d="M124.16 4.74h1.93v8.62h-1.93zM132.75 13.37l-3.06-5.16v5.16h-1.79V4.74h1.87l2.86 4.83V4.74h1.79v8.63zM141.08 13.37l-3.07-5.16v5.16h-1.79V4.74h1.87l2.87 4.83V4.74h1.79v8.63z"/><g style="clip-path:url(#clippath)"><path d="M147.9 13.53c-2.23 0-3.7-1.8-3.7-4.46s1.47-4.49 3.72-4.49 3.71 1.8 3.71 4.46-1.46 4.49-3.73 4.49m.01-7.27c-1.12 0-1.78 1.09-1.78 2.8s.66 2.8 1.78 2.8 1.78-1.09 1.78-2.8-.65-2.8-1.78-2.8M156.95 13.42h-2.08l-2.68-8.41 2.06-.35 1.77 6.04 1.68-5.96h2.01zM162.38 4.71h2.12l2.7 8.4-1.95.35-.57-1.87H162l-.52 1.79h-1.89l2.8-8.66Zm.08 5.2h1.75l-.87-3zM171.24 6.56v6.81h-1.94V6.56h-2.19V4.74h6.15l.27 1.82zM174.67 13.37V4.74h4.85v1.73h-2.95v1.62h2.25l.25 1.71h-2.5v1.83h3.05v1.74zM127.57 31.51c-2.32 0-3.73-1.72-3.73-4.45s1.48-4.47 3.82-4.47c.82 0 1.49.2 2.05.56l-.27 1.92c-.46-.4-1-.7-1.68-.7-1.22 0-1.99 1.02-1.99 2.67s.82 2.67 2.04 2.67c.63 0 1.19-.26 1.77-.66l.25 1.79c-.62.4-1.34.66-2.25.66M133.52 22.7h2.12l2.7 8.4-1.95.35-.57-1.87h-2.68l-.52 1.79h-1.89l2.8-8.66Zm.08 5.2h1.75l-.87-3zM143.59 31.45l-1.7-3.05h-.48v2.96h-1.92v-8.62h2.72c1.88 0 2.99.95 2.99 2.72 0 1.2-.54 2.01-1.46 2.45l1.9 3.17-2.04.36Zm-1.58-7.1h-.62v2.51h.6c.83 0 1.31-.45 1.31-1.27s-.45-1.24-1.28-1.24M150.03 31.53c-2.23 0-3.7-1.8-3.7-4.46s1.47-4.49 3.72-4.49 3.71 1.8 3.71 4.46-1.46 4.49-3.73 4.49m.01-7.28c-1.11 0-1.78 1.09-1.78 2.8s.67 2.8 1.78 2.8 1.78-1.09 1.78-2.8-.65-2.8-1.78-2.8M155.22 31.36v-8.62h1.93v6.77h2.39l.25 1.85zM160.98 22.74h1.93v8.62h-1.93zM169.57 31.36l-3.06-5.16v5.16h-1.79v-8.62h1.87l2.86 4.83v-4.83h1.79v8.62zM175.18 22.7h2.12l2.7 8.4-1.95.35-.57-1.87h-2.68l-.52 1.79h-1.89l2.79-8.66Zm.08 5.2h1.75l-.87-3zM114.28 0h.36v36h-.36z"/><path d="M10.74 9.88c.05.05.08.04.08.04 3.57-.15 5.61 1.35 5.78 1.96l1.42-.03.44-1.07c.03-.09.01-.22-.01-.25-.43-.53-4.02-1.66-8.35-1.66-4.62 0-7.55 1.01-8.17 1.52 0 0-.15.1-.15.25 0 .07.09.26.09.26l.13.3c.04.09.09.08.19.02 0 0 .08-.03.1-.09s-.04-.17-.04-.17c-.09-.21.03-.23.04-.24l.26-.13c.13-.04.14.03.18.14 0 0 .05.15.08.18.07.04.28-.09.91-.26.04 0 .07-.01.15-.05.06-.03 0-.26 0-.26-.02-.11-.07-.23.16-.27l.39-.09c.18-.05.2.05.22.17 0 0 .01.17.05.25.05.09.15-.05 1.35-.2 0 0 .17 0 .21-.07s0-.23 0-.23c-.01-.16-.07-.28.21-.3l.53-.05c.39-.07.33.08.34.24 0 0 .01.17.04.21.03.03.15.03.15.03.67-.08 1.05-.07 1.76-.11 0 0 .1 0 .14-.05s.03-.1.03-.1c0-.09-.02-.23.03-.29.06-.07.15-.04.25-.04h.6c.09 0 .28-.05.34.03.03.05.02.33.02.33s0 .05.03.07" class="cls-2"/><path d="M10.14 3.46c-3.48 0-5.63 1.24-7 2.73l-.04.06c-.03.08-.03.19.11.14C6.2 5 9.46 5.87 10.5 7.18c.04.06 0 .08-.04.08-1.05.01-1.93-.05-3.87.25-1.05.16-1.98.33-2.77.56-1.3.37-2.22.84-2.73 1.22-.19.11-.2.19-.25.29-.06.19-.05.19-.09.31-.06.24-.1.4-.11.48-.02.15.12.1.2.01.16-.17.59-.59 1.21-.92.64-.33 1.7-.71 2.85-.94 1.53-.31 3.4-.51 5.11-.52 1.98 0 3.76.22 5.24.54 1.51.33 2.7.78 3.47 1.2.36.19.57.37.81.6.19.22.2.03.2-.02 0 0-.03-.29-.36-.95-.99-2.01-3.62-5.91-9.23-5.91M.01 29.3c0 .9 3.36 2.74 10.33 2.74s10.32-1.84 10.32-2.74l-.03-1.38s0-.09-.02-.06c-.01-.25-.37-.3-1.46-.31l-.03-.76c0 .08-.23.24-.37.34-.89.57-4.29 1.42-8.54 1.42-4.92 0-8.37-1.13-8.91-1.75v1.18c1.61 1.28 6.6 2.43 11.64 1.84.15 0 .2-.04.35.01.04.01.18.15-.09.26-2.93 1.05-10.14.81-13.2-1.76v.97M14.41 11.52h.06-.06M14.34 11.81v.01-.24.22ZM12.49 11.43h-.02" class="cls-2"/><path d="M14.46 10.97h-1.9c-.09 0-.13.05-.14.15v.24c0 .11.04.16.14.16h.59c.05 0 .07.02.07.03.02.06-.09.12-.12.15l-.29.21s-.08.09-.08.2v15.12c.02.27.4.29.81.29.35 0 .76-.02.81-.28 0 0-.01-14.39 0-15.64 0-.06.02-.07.03-.07s.07-.02.07-.02c.09 0 .13-.05.13-.15v-.25c0-.09-.06-.14-.13-.14M11.33 21.49l.04-.1h.13v-.09H8.86v.09H9l.04.09.16.37s.03.03.06.05.1.02.13.02h.65c.05 0 .12 0 .16.05.02.03.04.12-.06.19-.23.17-.61.44-.78.57-.02.01-.08.06-.1.11-.02.06-.02.1-.02.1v2.84l-.22.1s-.07.57 0 .63 2.23.06 2.3 0c.07-.05 0-.64 0-.64l-.23-.09v-3.82l.22-.49ZM18.15 11.79h-1.9c-.09 0-.13.05-.14.15v.23c0 .11.04.16.14.16h.59c.05 0 .07.02.07.03.02.07-.08.12-.12.15l-.29.21s-.08.08-.08.2v13.63c.02.26.4.29.81.29.35 0 .76-.02.81-.28 0 0-.01-12.9 0-14.15 0-.06.02-.07.03-.08.01 0 .07-.01.07-.01.09 0 .13-.05.13-.15v-.26c0-.09-.06-.14-.13-.14M7.75 10.97h-1.9c-.09 0-.14.05-.14.15v.24c0 .11.04.16.14.16h.59c.05 0 .07.03.07.03.02.06-.09.12-.12.15l-.29.21s-.08.09-.08.2v15.12c.02.26.4.29.81.29.35 0 .76-.02.81-.28V11.6c0-.06.02-.07.03-.08.01 0 .07-.02.07-.02.08 0 .13-.05.13-.15v-.25c0-.1-.06-.14-.13-.15M4.04 11.83h-1.9c-.09 0-.14.05-.14.15v.24c0 .11.04.16.14.16h.59c.05 0 .07.03.07.04.02.07-.09.12-.12.15l-.29.21s-.08.09-.08.2v13.63c.01.26.4.29.81.29.35 0 .76-.03.81-.28V12.47c0-.06.02-.07.03-.08s.07-.02.07-.02c.09 0 .14-.05.14-.15v-.25c0-.09-.06-.14-.13-.15M103.74 11.75c-1.27-3.98-4.58-6.59-8.79-6.59-6.44 0-10.45 5.17-10.45 12.35 0 7.74 5.01 13.42 10.87 13.42 3.05 0 6.79-1.15 9.41-6.32h.73c-.5 1.92-1.54 4.57-2.47 6.24-2.47-.38-4.16 1.16-8.71 1.16-7.83 0-13.45-5.73-13.45-13.64 0-8.29 5.78-14.27 13.84-14.27 4.86 0 6.94 1.71 8.13 1.71.42 0 .61-.13.69-.26h.57l.35 6.2h-.73ZM71.72 4.74v.81c3.08.09 3.77.56 3.77 3.16v17.01L57.34 4.74H42.85v.81c3.2.17 3.78.9 3.78 5v9.96c0 7.26-4.43 9.27-8.79 9.27-5.74 0-8.79-3.46-8.79-9.23V8.67c0-2.48.93-3.12 3.04-3.12h.35v-.81h-9.91v.81c2.62.04 3.32.47 3.32 3.21v12.48c0 6.11 3.78 10.77 11.14 10.77 8.37 0 11.41-5.69 11.41-10.99V9.49c0-3.17 1.37-3.92 3.16-3.92 1.07 0 2.11.37 2.97 1.04v21.04c0 1.96-.77 2.86-3.16 2.86h-.15v.81h8.95v-.81c-3.28 0-3.9-.64-3.9-3.72V8.45l19.96 23.17h1.01V7.77c0-1.66.62-2.22 3.51-2.22v-.81h-9.02Z" class="cls-2"/></g></svg>