<svg xmlns="http://www.w3.org/2000/svg" width="1123.6" height="252.4" data-name="Layer 1" viewBox="0 0 1123.6 252.4"><path fill="#13343b" d="M553.3 76h8.6v17.7h-11.1q-13.05 0-19.5 6.3c-4.3 4.2-6.4 11.1-6.4 20.6v58h-17.5V76.4h17.5v16.3c0 .9.5 1.4 1.4 1.4s.9-.1 1.2-.4.5-.8.8-1.6c3.4-10.7 11.8-16.1 25.2-16.1zm114.6 21.9c4.6 8.2 6.9 18.1 6.9 29.6s-2.3 21.4-6.9 29.6-10.6 14.3-17.9 18.4-15.2 6.1-23.7 6.1q-24.9 0-35.1-20.1c-.5-1-1.2-1.6-2-1.6q-1.2 0-1.2 1.2v54.8h-17.5V76.4H588v17.5q0 1.2 1.2 1.2c.8 0 1.4-.5 2-1.6q10.2-20.1 35.1-20.1c16.6 0 16.3 2 23.7 6.1 7.3 4.1 13.3 10.2 17.9 18.4m-10.6 29.5c0-12.1-3.2-21.5-9.7-28.2-6.4-6.7-14.9-10.1-25.4-10.1s-19 3.4-25.4 10.1c-6.4 6.8-8.8 16.2-8.8 28.2s2.4 21.5 8.8 28.2c6.4 6.8 14.9 10.1 25.4 10.1s19-3.4 25.4-10.1 9.7-16.2 9.7-28.2M378 98c4.6 8.2 6.9 18.1 6.9 29.6s-2.3 21.4-6.9 29.6-10.6 14.3-17.9 18.4-15.2 6.1-23.7 6.1q-24.9 0-35.1-20.1c-.5-1-1.2-1.6-2-1.6q-1.2 0-1.2 1.2V216h-17.5V76.5h17.5V94q0 1.2 1.2 1.2c.8 0 1.4-.5 2-1.6q10.2-20.1 35.1-20.1c16.6 0 16.3 2 23.7 6.1 7.3 4.1 13.3 10.2 17.9 18.4m-10.6 29.6q0-18.15-9.6-28.2c-6.4-6.7-14.9-10.1-25.4-10.1s-19 3.4-25.4 10.1c-6.4 6.8-8.8 16.2-8.8 28.2s2.4 21.5 8.8 28.2c6.4 6.8 14.9 10.1 25.4 10.1s19-3.4 25.4-10.1 9.6-16.2 9.6-28.2M475 146.1h18.5c-2.5 9.6-7.5 17.9-15.1 24.9q-11.4 10.5-32.7 10.5c-14.2 0-20-2.2-28.2-6.6-8.1-4.4-14.4-10.6-18.8-18.8-4.4-8.1-6.6-17.7-6.6-28.7s2.2-20.6 6.4-28.7c4.3-8.1 10.3-14.4 18-18.8s16.8-6.6 27.2-6.6 19 2.2 26.2 6.5 12.6 10.1 16.2 17.2 5.4 15 5.4 23.5v11.8h-80.9c.6 10.2 4.1 18.3 10.2 24.4q9.3 9 24.9 9c10.4 0 14.9-1.7 19.4-5.2s7.8-8.3 9.8-14.5zm-64.2-28.5H472c0-8.9-2.3-15.9-6.8-20.9s-11.7-7.6-21.4-7.6-16.5 2.5-22.3 7.4-9.3 12-10.6 21.1zm277.9 60.9h17.5V37h-17.5ZM932.2 65.2h20.5V43.1h-20.5zm72.2 98.1c-3.2.3-5.1.5-5.8.5s-1.6-.3-2.2-.8c-.5-.5-.8-1.2-.8-2.2s.2-2.6.5-5.8.5-8.2.5-14.8V91.3h25l-4.9-15h-20.1V48.8h-17.5v27.5H960v15h19.1v53.8c0 11.3 2.7 19.7 8.2 25.2s13.8 8.3 25 8.3h13.6v-15.7h-6.8c-6.6 0-11.5.2-14.7.5zm102.7-87L1078 162c-.4 1.1-1 2.4-3 2.4s-2.6-1.4-3-2.4l-29.1-85.7H1025l33.6 102.2h11.9c.8 0 1.4 0 1.8.2.4.1.7.5 1 1 .5.8.5 2-.2 3.5l-5.5 14.9q-1.2 3-4.5 3c-2.2 0-2.6-.2-5.5-.5s-6.6-.5-11.1-.5h-14.2v15.7h18.7c10.9 0 17.5-1.9 23.1-5.6 5.7-3.7 10-10.3 13.2-19.8l36.3-110.3v-3.9h-16.7zm-232.3 38.2-27.5-38.1H828v3.9l32.9 44.2-40.2 50.1v3.9h19.7l32-41.1 29.8 41.1h18.9v-3.9l-34.9-47.2 37.8-47v-4.1h-19.7l-29.6 38.1zm59.2 64h17.5V76.3H934Zm-112.4-32.4c-2.5 9.6-7.5 17.9-15.1 24.9q-11.4 10.5-32.7 10.5c-14.2 0-20-2.2-28.2-6.6-8.1-4.4-14.4-10.6-18.8-18.8-4.4-8.1-6.6-17.7-6.6-28.7s2.2-20.6 6.4-28.7c4.3-8.1 10.3-14.4 18-18.8s16.8-6.6 27.2-6.6 19 2.2 26.2 6.5 12.6 10.1 16.2 17.2 5.4 15 5.4 23.5v11.8h-80.9c.6 10.2 4.1 18.3 10.2 24.4q9.3 9 24.9 9c10.4 0 14.9-1.7 19.4-5.2s7.8-8.3 9.8-14.5h18.5zM739 117.6h61.2c0-8.9-2.3-15.9-6.8-20.9s-11.7-7.6-21.4-7.6-16.5 2.5-22.3 7.4-9.3 12-10.6 21.1z"/><path fill="#20808d" d="M216.9 75.6h-29.8V0l-72.6 67.7V0h-12.1v67.7L29.8 0v75.6H0v108.9h29.7v67.9l72.7-64.7v64.7h12.1v-64.7l72.7 64.7v-67.9h29.7zM175 27.8v47.7h-51.2zm-133.1 0 51.2 47.7H41.9ZM12.1 172.4V87.7h80.8l-63.2 58.1v26.6zm29.7-21.3 60.6-55.7v76.1l-60.6 53.9V151zm133.3 74.3-60.6-53.9V95.4l60.6 55.7v74.4zm29.7-53h-17.6v-26.6L124 87.7h80.8z"/></svg>